<svg width="58" height="74" viewBox="0 0 58 74" fill="none" xmlns="http://www.w3.org/2000/svg">
<path d="M28.7815 0.511101C34.2333 1.12443 38.2541 2.57258 39.9919 4.56592C40.4689 5.09407 40.8778 5.31556 42.5474 5.87778C44.4726 6.52519 45.597 7.08741 44.2 6.69556C43.3141 6.45704 39.5659 6.45704 38.0837 6.71259C37.4363 6.83185 36.2437 7.13851 35.46 7.39407L34.0289 7.87111L34.1481 6.74666C34.1993 6.13333 34.3015 5.31555 34.3526 4.94073C34.4889 4.10592 34.7615 3.85036 31.2348 7.93925C29.6674 9.77925 26.7881 13.1185 24.8459 15.3844C22.8867 17.6333 21.3022 19.5244 21.3022 19.5755C21.3022 19.6267 22.8867 18.3489 24.8459 16.7304C26.7881 15.1118 29.3267 12.9993 30.5022 12.0281L32.6318 10.2563L32.717 11.8237L32.8022 13.3911L33.3985 12.7778C34.6763 11.4489 37.2489 10.3074 39.7193 9.96667C44.4044 9.31926 50.4185 11.5852 54.797 15.657C55.4444 16.2533 56.2281 17.1052 56.5518 17.5481L57.1311 18.3489L56.2111 17.8037C54.9163 17.0541 52.463 15.8785 52.3607 15.9807C52.3267 16.0319 52.3607 17.1393 52.463 18.4341C52.8378 23.5452 52.003 28.8437 50.0778 33.6993C49.0385 36.3059 46.5 41.383 45.3244 43.1718C42.9392 46.8348 40.2815 49.5437 36.823 51.8607C34.6763 53.2918 32.5807 54.4333 26.5837 57.3807C21.2341 60.0215 17.5541 62.083 14.4874 64.1274C11.063 66.4274 6.68445 69.8518 4.11185 72.2541C2.66371 73.583 2.73185 73.4126 4.62296 70.6185C7.97926 65.6437 10.4496 62.9348 16.8726 57.1592C20.3481 54.0415 24.3348 50.0889 24.1644 49.9185C24.0452 49.7993 21.5919 50.4467 20.6889 50.8385C19.9904 51.1622 20.1437 50.9578 22.4267 48.76C27.8956 43.4955 30.843 39.3215 30.843 36.8681C30.843 36.1185 30.7748 35.9311 30.2807 35.437C29.3267 34.483 27.5889 34.2785 24.4541 34.7726L22.6652 35.0452L22.2222 35.8459C21.9667 36.2718 21.5407 36.9704 21.2681 37.3963C20.9956 37.8222 19.8711 39.6111 18.7637 41.383L16.7363 44.603L13.9593 45.4207L11.1652 46.2215L7.92815 46C6.15629 45.8807 3.75407 45.7104 2.59555 45.6592L0.5 45.54L1.76073 43.1207C2.45925 41.8089 4.3163 38.18 5.88371 35.0963C7.45111 31.9955 8.81407 29.4059 8.88222 29.3207C8.9674 29.2185 9.03555 27.7874 9.03555 26.1007V23.0511L11.6933 17.8378C13.1756 14.9585 14.4363 12.5052 14.5385 12.403C14.6407 12.2496 14.6237 12.1644 14.4704 12.0963C14.3341 12.0622 12.8178 11.517 11.08 10.9207C7.36592 9.62592 3.60074 8.16075 2.06741 7.44519C0.823702 6.84889 0.738517 6.89999 3.5837 6.47407C7.22963 5.92888 10.9437 5.06 13.2607 4.24222C14.7259 3.71407 14.743 3.74814 12.6474 2.4874L11.2504 1.65259L11.7956 1.46517C15.1348 0.408876 23.6022 -0.0681585 28.7815 0.511101Z" fill="#BD8800"/>
</svg>
